<svg width="337" height="335" viewBox="0 0 337 335" fill="none" xmlns="http://www.w3.org/2000/svg">
<path d="M137.715 309.93C139.075 310.228 140.371 310.668 141.603 311.25C142.816 311.843 143.78 312.489 144.495 313.186L141.829 316.828C141.147 316.203 140.352 315.644 139.445 315.15C138.534 314.672 137.634 314.335 136.743 314.14C135.977 313.972 135.415 313.922 135.056 313.991C134.693 314.075 134.479 314.265 134.414 314.562C134.339 314.906 134.501 315.212 134.901 315.48C135.285 315.744 135.947 316.086 136.887 316.505C138.095 317.049 139.088 317.561 139.867 318.043C140.642 318.541 141.267 319.202 141.741 320.027C142.212 320.868 142.318 321.882 142.057 323.069C141.831 324.101 141.336 324.975 140.573 325.692C139.809 326.409 138.804 326.885 137.557 327.119C136.294 327.35 134.842 327.286 133.201 326.926C132.076 326.679 131.002 326.312 129.978 325.826C128.936 325.351 128.051 324.789 127.326 324.138L129.87 320.495C131.301 321.66 132.736 322.401 134.174 322.716C135.596 323.028 136.382 322.84 136.533 322.153C136.605 321.824 136.449 321.528 136.065 321.264C135.677 321.015 135.019 320.69 134.091 320.29C132.893 319.782 131.898 319.277 131.107 318.776C130.312 318.29 129.678 317.635 129.204 316.81C128.714 315.982 128.599 314.974 128.859 313.786C129.086 312.755 129.58 311.881 130.344 311.163C131.104 310.462 132.117 309.988 133.383 309.742C134.63 309.507 136.074 309.57 137.715 309.93Z" fill="#A5A1FF"/>
<path d="M109.151 305.805L110.66 301.809L123.727 306.745L117.79 322.461L105.015 317.635L106.525 313.639L114.091 316.497L114.787 314.656L108.141 312.145L109.583 308.329L116.228 310.839L117.009 308.773L109.151 305.805Z" fill="#A5A1FF"/>
<path d="M95.3658 298.773L96.7039 299.527L98.7778 295.847L103.712 298.628L95.4636 313.264L88.4176 309.293C87.0656 308.531 86.0134 307.644 85.2612 306.632C84.509 305.621 84.0968 304.544 84.0245 303.401C83.9522 302.258 84.2303 301.129 84.8588 300.014C85.448 298.969 86.1995 298.189 87.1133 297.676C88.0271 297.162 89.0597 296.927 90.211 296.97L89.6828 290.722L94.9516 293.691L95.3658 298.773ZM89.8349 302.819C89.5285 303.362 89.4601 303.875 89.6297 304.356C89.7914 304.851 90.2068 305.287 90.8758 305.664L92.6739 306.678L94.6064 303.249L92.8083 302.235C92.1393 301.858 91.555 301.722 91.0555 301.826C90.5481 301.944 90.1413 302.275 89.8349 302.819Z" fill="#A5A1FF"/>
<path d="M59.8029 289.042L75.8212 280.317L80.1786 283.784L75.2792 301.354L70.5086 297.559L73.4829 287.382L64.1603 292.509L59.8029 289.042Z" fill="#A5A1FF"/>
<path d="M54.2582 283.44L50.3136 279.375L62.3696 267.675L66.3142 271.74L54.2582 283.44Z" fill="#A5A1FF"/>
<path d="M52.0023 254.628C53.0706 256.047 53.7391 257.546 54.0077 259.127C54.2636 260.717 54.1065 262.237 53.5365 263.688C52.9441 265.135 51.9704 266.369 50.6156 267.389C49.2608 268.409 47.8123 268.999 46.2702 269.159C44.7057 269.316 43.2012 269.047 41.7566 268.352C40.2993 267.667 39.0365 266.615 37.9682 265.196C36.9865 263.892 36.3407 262.556 36.0309 261.187C35.721 259.818 35.7505 258.474 36.1191 257.155L40.8201 258.091C40.3976 259.711 40.6099 261.084 41.4568 262.208C42.1691 263.154 43.0485 263.684 44.0951 263.797C45.1289 263.92 46.1571 263.596 47.1796 262.826C48.2022 262.056 48.8036 261.153 48.984 260.115C49.1517 259.088 48.8794 258.101 48.1672 257.155C47.3202 256.031 46.0599 255.447 44.3862 255.406L44.785 250.629C46.1546 250.639 47.4545 250.982 48.6846 251.658C49.9147 252.334 51.0206 253.324 52.0023 254.628Z" fill="#A5A1FF"/>
<path d="M33.4321 233.119L37.1946 231.096L43.8101 243.398L29.0138 251.355L22.5461 239.328L26.3086 237.304L30.1392 244.428L31.8725 243.496L28.5079 237.239L32.1013 235.306L35.4658 241.563L37.4105 240.517L33.4321 233.119Z" fill="#A5A1FF"/>
<path d="M32.3055 218.081C32.7804 219.39 33.1014 220.72 33.2687 222.072C33.4155 223.414 33.3853 224.574 33.1783 225.552L28.6757 225.245C28.8389 224.335 28.8867 223.364 28.819 222.334C28.7363 221.308 28.5394 220.367 28.2283 219.51C27.9608 218.773 27.7021 218.271 27.4521 218.004C27.1871 217.743 26.9117 217.664 26.6259 217.768C26.2951 217.888 26.1233 218.189 26.1107 218.67C26.0926 219.136 26.1578 219.878 26.3061 220.897C26.4925 222.208 26.5902 223.321 26.5992 224.237C26.5931 225.158 26.3684 226.04 25.9249 226.882C25.4664 227.729 24.6657 228.36 23.5226 228.775C22.53 229.135 21.5266 229.184 20.5124 228.922C19.4983 228.661 18.5589 228.065 17.6942 227.137C16.8241 226.193 16.1024 224.931 15.5293 223.352C15.1364 222.269 14.8719 221.165 14.7359 220.04C14.5794 218.906 14.5822 217.858 14.7441 216.897L19.1832 217.099C18.9633 218.932 19.1044 220.54 19.6066 221.924C20.1033 223.292 20.6825 223.857 21.3443 223.616C21.6601 223.502 21.8271 223.211 21.8451 222.745C21.8482 222.285 21.7707 221.555 21.6128 220.557C21.4018 219.272 21.2965 218.162 21.2972 217.225C21.2827 216.294 21.4972 215.408 21.9407 214.566C22.3787 213.709 23.1692 213.073 24.3122 212.659C25.3049 212.298 26.3083 212.249 27.3224 212.511C28.3215 212.778 29.2636 213.381 30.1488 214.319C31.0135 215.248 31.7324 216.502 32.3055 218.081Z" fill="#A5A1FF"/>
<path d="M10.3591 172.362L11.4804 170.006L14.2388 171.542L12.9038 173.955L15.4661 173.77L15.6078 176.983L13.0391 177.024L14.5813 179.311L11.9678 181.059L10.6435 178.812L9.52221 181.167L6.76492 179.655L8.09991 177.242L5.53757 177.427L5.39589 174.214L7.96457 174.173L6.42235 171.887L9.03479 170.114L10.3591 172.362Z" fill="#A5A1FF"/>
<path d="M28.2613 131.402C27.9034 132.748 27.4069 134.023 26.7717 135.228C26.1252 136.414 25.4378 137.348 24.7096 138.032L21.1892 135.208C21.8433 134.554 22.437 133.785 22.9703 132.901C23.4882 132.012 23.8643 131.127 24.0988 130.245C24.3003 129.488 24.3747 128.928 24.3219 128.566C24.2537 128.201 24.0726 127.979 23.7789 127.9C23.4387 127.81 23.126 127.958 22.8407 128.346C22.5596 128.718 22.1889 129.365 21.7288 130.286C21.1328 131.468 20.5768 132.438 20.061 133.195C19.5296 133.947 18.8415 134.542 17.9966 134.98C17.1363 135.413 16.1186 135.474 14.9434 135.161C13.9229 134.89 13.0713 134.357 12.3885 133.563C11.7057 132.768 11.2748 131.743 11.0957 130.487C10.9208 129.215 11.0492 127.768 11.4811 126.144C11.7772 125.031 12.1909 123.974 12.7221 122.972C13.2419 121.952 13.8428 121.093 14.5247 120.397L18.0527 123.099C16.825 124.478 16.022 125.878 15.6436 127.301C15.2693 128.708 15.4223 129.502 16.1026 129.683C16.4273 129.769 16.7303 129.626 17.0114 129.254C17.2771 128.878 17.6302 128.235 18.0708 127.326C18.6317 126.15 19.18 125.179 19.7154 124.411C20.2354 123.638 20.9179 123.033 21.7627 122.596C22.6117 122.143 23.6238 122.073 24.7989 122.385C25.8194 122.657 26.671 123.19 27.3538 123.984C28.0211 124.774 28.45 125.807 28.6404 127.083C28.8195 128.339 28.6931 129.779 28.2613 131.402Z" fill="#A5A1FF"/>
<path d="M33.6402 103.049L37.5661 104.733L32.0592 117.569L16.62 110.946L22.0039 98.3961L25.9299 100.08L22.7411 107.513L24.5497 108.289L27.3505 101.761L31.1 103.369L28.2993 109.898L30.3284 110.768L33.6402 103.049Z" fill="#A5A1FF"/>
<path d="M41.2732 89.5854L40.4608 90.889L44.0457 93.123L41.0501 97.93L26.7921 89.0448L31.0697 82.1806C31.8905 80.8634 32.8228 79.8513 33.8666 79.1444C34.9104 78.4375 36.0047 78.0731 37.1495 78.0513C38.2942 78.0294 39.4098 78.357 40.4961 79.0339C41.5146 79.6686 42.2601 80.4537 42.7328 81.3893C43.2056 82.3249 43.3952 83.3668 43.3017 84.5151L49.5673 84.2626L46.3686 89.3956L41.2732 89.5854ZM37.4751 83.8817C36.9456 83.5517 36.4366 83.4608 35.9484 83.609C35.4466 83.7487 34.9925 84.1445 34.5864 84.7963L33.4948 86.548L36.8352 88.6296L37.9268 86.8779C38.333 86.2261 38.4951 85.6484 38.413 85.1448C38.3173 84.6328 38.0047 84.2117 37.4751 83.8817Z" fill="#A5A1FF"/>
<path d="M52.5605 54.4852L60.5711 70.8723L56.9161 75.0727L39.5791 69.4041L43.5806 64.8053L53.6167 68.2251L48.9055 58.6856L52.5605 54.4852Z" fill="#A5A1FF"/>
<path d="M58.4021 49.1934L62.6366 45.4317L73.7942 57.9914L69.5598 61.7531L58.4021 49.1934Z" fill="#A5A1FF"/>
<path d="M87.2852 48.2087C85.8208 49.2135 84.2933 49.8153 82.7027 50.0141C81.1031 50.1996 79.5911 49.9757 78.167 49.3423C76.7469 48.6867 75.5572 47.6597 74.5976 46.2612C73.6381 44.8627 73.1125 43.3897 73.0208 41.842C72.9333 40.2721 73.2684 38.7809 74.0262 37.3684C74.775 35.9427 75.8816 34.7274 77.346 33.7227C78.6917 32.7993 80.0552 32.2131 81.4366 31.9639C82.8179 31.7147 84.1593 31.8033 85.4609 32.2297L84.3182 36.8849C82.7183 36.3914 81.3379 36.543 80.1769 37.3396C79.2006 38.0094 78.6329 38.8647 78.4737 39.9053C78.3055 40.9327 78.5834 41.9741 79.3076 43.0296C80.0318 44.085 80.9079 44.7257 81.9361 44.9517C82.9553 45.1644 83.953 44.9358 84.9293 44.266C86.0903 43.4694 86.7284 42.236 86.8437 40.5657L91.5983 41.1746C91.5278 42.5425 91.1277 43.826 90.3982 45.0251C89.6686 46.2242 88.6309 47.2854 87.2852 48.2087Z" fill="#A5A1FF"/>
<path d="M109.593 30.6052L111.449 34.4532L98.867 40.5203L91.5698 25.3879L103.87 19.4563L105.726 23.3042L98.4407 26.8173L99.2955 28.59L105.694 25.5043L107.467 29.1793L101.068 32.265L102.027 34.2538L109.593 30.6052Z" fill="#A5A1FF"/>
<path d="M124.666 30.1417C123.338 30.5584 121.994 30.8206 120.636 30.9281C119.289 31.0156 118.131 30.9344 117.164 30.6845L117.669 26.1997C118.571 26.4029 119.538 26.4934 120.571 26.4712C121.599 26.4338 122.548 26.2785 123.418 26.0055C124.166 25.7707 124.679 25.5344 124.956 25.2964C125.229 25.0431 125.32 24.7715 125.229 24.4814C125.124 24.1456 124.831 23.9607 124.351 23.9269C123.886 23.8884 123.141 23.9207 122.117 24.024C120.799 24.1525 119.683 24.2011 118.767 24.1697C117.847 24.1231 116.976 23.8597 116.155 23.3796C115.329 22.8842 114.733 22.0564 114.369 20.8962C114.053 19.8886 114.048 18.8841 114.354 17.8824C114.661 16.8808 115.297 15.9686 116.263 15.1456C117.244 14.3179 118.536 13.6526 120.139 13.1496C121.238 12.8047 122.353 12.5891 123.483 12.5028C124.623 12.3965 125.67 12.4454 126.622 12.6495L126.225 17.0754C124.404 16.775 122.791 16.8451 121.386 17.2858C119.997 17.7217 119.408 18.2755 119.619 18.9472C119.719 19.2678 120.002 19.4474 120.467 19.486C120.927 19.5093 121.659 19.4641 122.663 19.3503C123.956 19.196 125.07 19.1399 126.006 19.1817C126.937 19.2083 127.813 19.4617 128.634 19.9417C129.471 20.4171 130.071 21.2348 130.435 22.395C130.751 23.4026 130.756 24.4072 130.45 25.4088C130.139 26.3951 129.495 27.3098 128.519 28.1528C127.553 28.9757 126.269 29.6387 124.666 30.1417Z" fill="#A5A1FF"/>
<path d="M171.306 10.232L173.61 11.456L171.954 14.144L169.602 12.704L169.674 15.272L166.458 15.272L166.53 12.704L164.178 14.144L162.546 11.456L164.85 10.232L162.546 9.008L164.178 6.32L166.53 7.76L166.458 5.192L169.674 5.192L169.602 7.76L171.954 6.32L173.61 9.008L171.306 10.232Z" fill="#A5A1FF"/>
<path d="M211.437 29.9206C210.109 29.5038 208.857 28.9516 207.681 28.264C206.525 27.5658 205.621 26.8379 204.97 26.0803L207.947 22.6877C208.571 23.3699 209.313 23.997 210.174 24.5687C211.039 25.1253 211.906 25.54 212.776 25.8131C213.524 26.0478 214.08 26.1468 214.444 26.11C214.812 26.0579 215.042 25.8868 215.133 25.5968C215.239 25.2609 215.104 24.942 214.729 24.6399C214.37 24.3427 213.74 23.9439 212.841 23.4437C211.686 22.7961 210.741 22.198 210.008 21.6493C209.279 21.0853 208.715 20.3716 208.315 19.5083C207.92 18.6297 207.905 17.6103 208.269 16.4501C208.585 15.4425 209.155 14.6152 209.978 13.968C210.802 13.3209 211.845 12.9356 213.108 12.812C214.386 12.6932 215.827 12.8853 217.43 13.3883C218.529 13.7332 219.567 14.1931 220.544 14.7678C221.54 15.3322 222.371 15.9702 223.037 16.6821L220.182 20.0877C218.859 18.8005 217.495 17.9365 216.091 17.4958C214.701 17.0599 213.901 17.1778 213.691 17.8495C213.59 18.1701 213.719 18.479 214.079 18.7763C214.443 19.0583 215.07 19.4394 215.959 19.9195C217.108 20.5318 218.055 21.1223 218.799 21.691C219.547 22.2446 220.122 22.953 220.521 23.8163C220.937 24.6844 220.962 25.6986 220.598 26.8588C220.282 27.8664 219.712 28.6937 218.889 29.3408C218.07 29.9727 217.019 30.3556 215.736 30.4897C214.473 30.6132 213.04 30.4235 211.437 29.9206Z" fill="#A5A1FF"/>
<path d="M239.527 36.5431L237.671 40.391L225.09 34.3239L232.387 19.1915L244.687 25.1231L242.832 28.971L235.547 25.458L234.692 27.2306L241.091 30.3163L239.318 33.9913L232.92 30.9056L231.961 32.8945L239.527 36.5431Z" fill="#A5A1FF"/>
<path d="M252.64 44.7622L251.373 43.8932L248.983 47.3762L244.313 44.1717L253.818 30.3189L260.487 34.8948C261.766 35.7728 262.736 36.7488 263.397 37.8227C264.057 38.8967 264.373 40.006 264.344 41.1506C264.316 42.2952 263.939 43.3952 263.215 44.4507C262.536 45.4402 261.719 46.1504 260.763 46.5815C259.808 47.0125 258.759 47.1561 257.616 47.0121L257.592 53.2827L252.605 49.861L252.64 44.7622ZM258.505 41.2191C258.858 40.7045 258.971 40.2001 258.845 39.7058C258.727 39.1983 258.352 38.7273 257.719 38.2928L256.017 37.1251L253.79 40.3706L255.492 41.5383C256.125 41.9728 256.695 42.1602 257.202 42.1004C257.718 42.0274 258.152 41.7336 258.505 41.2191Z" fill="#A5A1FF"/>
<path d="M287.209 57.5855L270.485 64.8664L266.449 61.03L272.876 43.9595L277.294 48.1597L273.436 58.0354L283.173 53.7491L287.209 57.5855Z" fill="#A5A1FF"/>
<path d="M292.238 63.6539L295.81 68.0499L282.771 78.6434L279.199 74.2474L292.238 63.6539Z" fill="#A5A1FF"/>
<path d="M291.951 92.5523C291.012 91.045 290.478 89.4924 290.349 87.8946C290.234 86.2884 290.525 84.7878 291.22 83.3929C291.938 82.0031 293.016 80.8597 294.456 79.9628C295.895 79.0658 297.39 78.6056 298.94 78.5822C300.512 78.5639 301.987 78.9644 303.365 79.7837C304.756 80.5945 305.922 81.7536 306.861 83.2608C307.724 84.6459 308.25 86.0339 308.438 87.4249C308.626 88.8159 308.478 90.1521 307.995 91.4337L303.395 90.0869C303.958 88.5104 303.868 87.1246 303.123 85.9297C302.497 84.9248 301.667 84.3199 300.635 84.1151C299.616 83.9017 298.563 84.1335 297.477 84.8105C296.39 85.4875 295.712 86.3346 295.441 87.3518C295.183 88.3606 295.368 89.3674 295.994 90.3723C296.738 91.5672 297.943 92.2591 299.606 92.4478L298.788 97.171C297.425 97.0403 296.16 96.5841 294.994 95.8024C293.829 95.0207 292.814 93.9373 291.951 92.5523Z" fill="#A5A1FF"/>
<path d="M308.554 115.613L304.628 117.297L299.121 104.461L314.56 97.8373L319.944 110.387L316.018 112.071L312.83 104.639L311.021 105.414L313.822 111.943L310.072 113.552L307.271 107.023L305.242 107.894L308.554 115.613Z" fill="#A5A1FF"/>
<path d="M308.354 130.691C307.996 129.346 307.793 127.993 307.746 126.631C307.718 125.281 307.85 124.128 308.142 123.173L312.6 123.875C312.358 124.767 312.225 125.73 312.201 126.762C312.193 127.791 312.307 128.746 312.541 129.627C312.743 130.385 312.956 130.908 313.182 131.195C313.423 131.479 313.69 131.582 313.984 131.503C314.324 131.413 314.522 131.129 314.577 130.65C314.636 130.188 314.636 129.443 314.578 128.415C314.508 127.093 314.508 125.975 314.58 125.062C314.667 124.145 314.969 123.286 315.484 122.487C316.016 121.683 316.869 121.125 318.044 120.812C319.065 120.541 320.068 120.58 321.056 120.93C322.043 121.28 322.926 121.956 323.706 122.957C324.489 123.974 325.097 125.294 325.529 126.917C325.825 128.031 325.991 129.154 326.028 130.286C326.084 131.431 325.989 132.474 325.743 133.417L321.339 132.825C321.719 131.019 321.72 129.404 321.342 127.982C320.968 126.575 320.44 125.962 319.76 126.142C319.435 126.229 319.243 126.503 319.184 126.966C319.141 127.425 319.154 128.158 319.223 129.166C319.32 130.465 319.327 131.58 319.244 132.513C319.177 133.442 318.885 134.306 318.369 135.105C317.858 135.92 317.014 136.484 315.839 136.796C314.818 137.068 313.815 137.029 312.827 136.679C311.856 136.325 310.97 135.641 310.171 134.629C309.392 133.627 308.786 132.315 308.354 130.691Z" fill="#A5A1FF"/>
<path d="M326.188 178.164L324.864 180.412L322.252 178.639L323.794 176.353L321.225 176.312L321.367 173.099L323.929 173.284L322.594 170.871L325.352 169.359L326.473 171.715L327.797 169.467L330.411 171.216L328.868 173.502L331.437 173.543L331.295 176.756L328.733 176.571L330.068 178.984L327.31 180.52L326.188 178.164Z" fill="#A5A1FF"/>
<path d="M304.751 217.39C305.226 216.081 305.833 214.854 306.572 213.71C307.32 212.586 308.087 211.715 308.873 211.098L312.131 214.221C311.422 214.815 310.763 215.529 310.153 216.363C309.559 217.203 309.107 218.051 308.796 218.908C308.528 219.645 308.405 220.196 308.426 220.561C308.461 220.932 308.622 221.169 308.908 221.272C309.239 221.393 309.563 221.272 309.882 220.911C310.194 220.565 310.62 219.954 311.16 219.077C311.858 217.952 312.497 217.035 313.077 216.326C313.673 215.623 314.411 215.091 315.291 214.729C316.186 214.373 317.205 214.403 318.348 214.818C319.341 215.178 320.142 215.784 320.752 216.635C321.363 217.486 321.702 218.545 321.769 219.812C321.832 221.095 321.576 222.525 321.003 224.104C320.61 225.187 320.105 226.204 319.488 227.154C318.88 228.125 318.206 228.928 317.466 229.561L314.189 226.559C315.533 225.294 316.457 223.969 316.959 222.586C317.455 221.217 317.373 220.413 316.711 220.172C316.395 220.058 316.081 220.174 315.768 220.52C315.47 220.871 315.062 221.48 314.543 222.347C313.881 223.469 313.249 224.388 312.648 225.106C312.062 225.83 311.329 226.372 310.449 226.734C309.564 227.11 308.549 227.091 307.406 226.676C306.414 226.316 305.612 225.71 305.002 224.859C304.407 224.013 304.071 222.947 303.993 221.659C303.925 220.392 304.178 218.969 304.751 217.39Z" fill="#A5A1FF"/>
<path d="M296.897 245.16L293.134 243.137L299.75 230.835L314.546 238.792L308.078 250.819L304.316 248.796L308.146 241.672L306.413 240.74L303.048 246.997L299.455 245.065L302.82 238.808L300.875 237.762L296.897 245.16Z" fill="#A5A1FF"/>
<path d="M288.109 257.899L289.033 256.672L285.658 254.131L289.065 249.606L302.486 259.712L297.621 266.173C296.687 267.413 295.669 268.339 294.567 268.951C293.465 269.563 292.343 269.83 291.201 269.751C290.059 269.672 288.976 269.248 287.954 268.478C286.995 267.756 286.322 266.908 285.933 265.935C285.545 264.961 285.447 263.906 285.642 262.771L279.378 262.471L283.016 257.639L288.109 257.899ZM291.39 263.915C291.888 264.29 292.387 264.425 292.887 264.321C293.399 264.226 293.886 263.871 294.348 263.258L295.59 261.609L292.445 259.241L291.204 260.89C290.742 261.504 290.529 262.065 290.567 262.574C290.617 263.092 290.891 263.539 291.39 263.915Z" fill="#A5A1FF"/>
<path d="M273.776 291.869L267.239 274.84L271.249 270.978L288.02 278.151L283.629 282.379L273.933 278.089L277.786 288.006L273.776 291.869Z" fill="#A5A1FF"/>
<path d="M267.491 296.626L262.942 300.001L252.933 286.508L257.482 283.133L267.491 296.626Z" fill="#A5A1FF"/>
<path d="M238.633 295.065C240.181 294.193 241.755 293.728 243.357 293.67C244.967 293.626 246.453 293.982 247.816 294.738C249.173 295.516 250.268 296.644 251.1 298.122C251.933 299.599 252.327 301.113 252.282 302.662C252.231 304.234 251.766 305.69 250.887 307.03C250.015 308.384 248.806 309.498 247.259 310.37C245.837 311.171 244.427 311.635 243.029 311.761C241.632 311.888 240.303 311.682 239.044 311.142L240.592 306.606C242.142 307.238 243.531 307.209 244.757 306.518C245.789 305.936 246.43 305.134 246.68 304.112C246.938 303.103 246.753 302.041 246.124 300.926C245.496 299.811 244.679 299.096 243.675 298.78C242.679 298.479 241.665 298.618 240.633 299.2C239.407 299.891 238.662 301.063 238.4 302.717L233.718 301.692C233.909 300.336 234.42 299.092 235.252 297.962C236.085 296.832 237.212 295.866 238.633 295.065Z" fill="#A5A1FF"/>
<path d="M214.863 310.637L213.354 306.641L226.421 301.705L232.357 317.421L219.583 322.247L218.073 318.25L225.639 315.392L224.944 313.551L218.298 316.061L216.856 312.245L223.502 309.734L222.721 307.669L214.863 310.637Z" fill="#A5A1FF"/>
<path d="M199.809 309.772C201.168 309.473 202.529 309.33 203.892 309.343C205.242 309.374 206.388 309.557 207.329 309.891L206.432 314.314C205.551 314.032 204.595 313.857 203.565 313.788C202.537 313.735 201.578 313.806 200.687 314.002C199.922 314.17 199.39 314.36 199.093 314.572C198.799 314.801 198.684 315.063 198.75 315.36C198.825 315.704 199.1 315.914 199.576 315.99C200.035 316.069 200.78 316.103 201.809 316.09C203.133 316.078 204.25 316.128 205.159 316.24C206.071 316.367 206.915 316.706 207.691 317.257C208.471 317.823 208.991 318.7 209.251 319.888C209.478 320.919 209.394 321.92 209.001 322.891C208.608 323.862 207.894 324.714 206.859 325.449C205.809 326.187 204.463 326.736 202.822 327.096C201.697 327.343 200.568 327.46 199.435 327.446C198.289 327.452 197.251 327.311 196.32 327.024L197.105 322.65C198.893 323.109 200.506 323.182 201.944 322.866C203.366 322.554 204.002 322.055 203.851 321.367C203.779 321.039 203.513 320.835 203.053 320.756C202.597 320.692 201.864 320.672 200.854 320.697C199.552 320.737 198.437 320.695 197.509 320.571C196.584 320.463 195.734 320.133 194.958 319.583C194.167 319.036 193.64 318.168 193.38 316.98C193.154 315.949 193.237 314.948 193.63 313.977C194.027 313.022 194.749 312.167 195.795 311.414C196.83 310.679 198.168 310.132 199.809 309.772Z" fill="#A5A1FF"/>
</svg>
